<svg id="Capa_1" enable-background="new 0 0 512 512" height="512" viewBox="0 0 512 512" width="512" xmlns="http://www.w3.org/2000/svg"><g><g><g><path d="m75 451h-30c-24.814 0-45-20.186-45-45l31.992-225h119.008v150h-34.131l-6.563 45.864c6.885 8.042 10.694 18.267 10.694 29.136 0 24.814-21.186 45-46 45z" fill="#242833"/></g></g><path d="m301 31h-60l-181 90-60 30v60h301l15-30v-60-60z" fill="#516373"/><path d="m0 211h301l15-30v-60h-256l-60 30z" fill="#3e4d59"/><g><path d="m181 241v240h331v-240z" fill="#edf5ff"/></g><path d="m346 241h166v240h-166z" fill="#d5e8fe"/><g><path d="m241 301h30v60h-30z" fill="#3e4d59"/></g><g><path d="m421 301h30v60h-30z" fill="#242833"/></g><g><path d="m361 301h30v120h-30z" fill="#242833"/></g><g><path d="m301 301h30v120h-30z" fill="#3e4d59"/></g><g><path d="m421 391h30v30h-30z" fill="#242833"/></g><g><path d="m241 391h30v30h-30z" fill="#3e4d59"/></g><g><path d="m388.899 45.996h109.202v30.009h-109.202z" fill="#99e6ff" transform="matrix(.962 -.274 .274 .962 .281 124.008)"/></g><g><path d="m428.496 126.399h30.009v109.202h-30.009z" fill="#5ecef4" transform="matrix(.275 -.962 .962 .275 147.625 557.711)"/></g><path d="m316 31h-15v90 90h15c24.901 0 45-20.101 45-45v-45-45c0-24.901-20.099-45-45-45z" fill="#ff7b4a"/><path d="m316 211c24.901 0 45-20.101 45-45v-45h-60v90z" fill="#ff435b"/><path d="m106 31c-52.8 0-97.599 39.3-104.801 90-.899 4.799-1.199 9.899-1.199 15v15h136c28.506 0 54.32-11.499 73.259-30 19.528-19.078 31.741-45.606 31.741-75v-15z" fill="#3e4d59"/><path d="m0 151h136c28.506 0 54.32-11.499 73.259-30h-208.06c-.899 4.799-1.199 9.899-1.199 15z" fill="#242833"/></g></svg>